<?xml version="1.0" standalone="no"?>
<!DOCTYPE svg PUBLIC "-//W3C//DTD SVG 20010904//EN"
 "http://www.w3.org/TR/2001/REC-SVG-20010904/DTD/svg10.dtd">
<svg version="1.0" xmlns="http://www.w3.org/2000/svg"
 width="419.000000pt" height="419.000000pt" viewBox="0 0 419.000000 419.000000"
 preserveAspectRatio="xMidYMid meet">

<g transform="translate(0.000000,419.000000) scale(0.100000,-0.100000)"
fill="#000000" stroke="none">
<path d="M1965 4180 c-172 -16 -274 -30 -301 -41 -16 -6 -47 -13 -69 -15 -49
-6 -115 -35 -134 -57 -10 -13 -17 -15 -27 -6 -11 9 -22 8 -46 -1 -18 -7 -58
-22 -88 -33 -105 -40 -291 -142 -413 -227 -84 -59 -164 -127 -258 -220 -217
-215 -369 -441 -468 -695 -12 -33 -31 -81 -42 -107 -10 -25 -20 -55 -22 -65
-2 -10 -11 -43 -19 -73 -39 -142 -46 -186 -68 -430 -7 -79 -7 -152 0 -230 22
-245 29 -288 68 -430 8 -30 17 -63 19 -73 2 -10 12 -40 22 -65 11 -26 30 -74
42 -107 100 -255 252 -482 468 -695 231 -228 463 -374 784 -489 85 -31 150
-50 187 -56 19 -3 49 -10 67 -16 84 -27 408 -51 538 -39 181 15 291 29 317 39
14 5 42 12 64 15 21 4 62 13 89 22 369 118 633 274 886 524 215 212 368 441
467 695 13 33 32 81 43 107 10 25 20 55 22 65 2 10 11 43 19 73 94 332 94 758
0 1090 -8 30 -17 63 -19 73 -2 10 -12 40 -22 65 -11 26 -30 74 -42 107 -99
254 -251 480 -468 695 -250 248 -515 405 -886 524 -27 9 -63 18 -80 20 -16 2
-57 11 -90 20 -32 9 -76 16 -96 16 -20 0 -58 4 -85 9 -75 14 -269 20 -359 11z
m409 -326 c482 -75 926 -350 1208 -749 197 -279 310 -602 333 -957 l6 -98
-1825 0 c-1454 0 -1826 3 -1826 13 2 80 23 269 40 354 80 395 301 768 609
1026 254 213 547 350 876 408 134 23 438 25 579 3z m-864 -2052 c172 -61 301
-174 379 -332 86 -173 86 -387 0 -560 -78 -158 -208 -272 -379 -332 -72 -26
-237 -35 -322 -19 -227 45 -414 215 -494 451 -27 78 -27 282 0 360 77 226 248
389 466 445 79 21 277 13 350 -13z m1488 13 c281 -66 492 -334 492 -625 0
-242 -143 -468 -361 -573 -118 -57 -190 -71 -322 -64 -236 13 -427 140 -537
358 -64 126 -82 304 -46 438 64 236 261 425 491 471 67 13 216 11 283 -5z"/>
<path d="M1925 3686 c-240 -56 -416 -198 -525 -421 -56 -115 -80 -215 -80
-335 0 -334 204 -621 525 -737 55 -20 189 -43 250 -43 61 0 195 23 250 43 318
116 525 402 525 730 0 345 -218 644 -545 747 -90 29 -308 37 -400 16z m249
-266 c39 -35 54 -88 37 -133 -14 -36 -58 -77 -85 -79 -12 0 -1 -4 24 -7 37 -5
49 -13 76 -48 18 -23 34 -47 36 -54 2 -7 49 15 122 57 93 54 121 66 134 57 39
-24 19 -47 -104 -118 l-121 -69 9 -31 c5 -16 10 -89 10 -161 l0 -130 67 -18
c97 -25 131 -42 131 -64 0 -35 -23 -44 -70 -27 -23 8 -66 15 -95 15 -61 0 -55
10 -76 -138 -12 -89 -30 -113 -64 -88 -17 12 -16 44 11 194 l6 32 -126 0 c-69
0 -126 -1 -126 -3 0 -2 7 -50 15 -107 17 -110 14 -124 -26 -118 -22 3 -25 11
-37 83 -25 163 -15 145 -77 145 -30 0 -73 -7 -95 -16 -32 -13 -43 -14 -55 -4
-37 31 -5 59 107 95 72 23 73 24 76 59 2 20 0 36 -4 36 -3 0 -46 -23 -95 -51
-94 -55 -124 -59 -124 -19 0 21 16 34 107 85 l107 60 5 55 c9 81 42 178 83
238 34 50 38 52 82 53 25 1 37 4 26 6 -79 20 -119 114 -79 182 40 67 129 82
188 31z"/>
<path d="M1240 1740 c-72 -9 -147 -35 -213 -73 -72 -43 -73 -47 -17 -102 l50
-49 0 40 c0 22 5 45 12 52 15 15 455 17 478 2 13 -8 15 -55 17 -307 l3 -297
85 -86 86 -85 19 25 c69 87 116 247 106 365 -20 258 -218 480 -454 510 -93 12
-108 12 -172 5z"/>
<path d="M1480 1560 c0 -5 5 -10 10 -10 6 0 10 5 10 10 0 6 -4 10 -10 10 -5 0
-10 -4 -10 -10z"/>
<path d="M856 1506 c-69 -104 -96 -192 -96 -315 0 -250 152 -457 390 -532 95
-29 231 -28 331 4 65 20 179 83 194 106 2 4 -22 34 -55 66 l-58 58 5 -41 c4
-29 1 -49 -11 -67 l-16 -25 -228 0 c-164 0 -231 3 -240 12 -9 9 -12 93 -12
318 l0 305 -84 84 -83 83 -37 -56z"/>
<path d="M1268 1553 c29 -2 74 -2 100 0 26 2 2 3 -53 3 -55 0 -76 -1 -47 -3z"/>
<path d="M1130 1472 c0 -22 34 -61 185 -212 l185 -185 0 213 0 212 -185 0
-185 0 0 -28z"/>
<path d="M1130 1135 l0 -185 187 0 188 0 -185 185 c-102 102 -186 185 -187
185 -2 0 -3 -83 -3 -185z"/>
<path d="M1291 876 c-17 -20 -2 -48 23 -44 24 3 34 37 14 49 -18 12 -24 11
-37 -5z"/>
<path d="M2778 1739 c-81 -9 -160 -37 -235 -85 l-56 -35 43 -44 c24 -24 48
-41 54 -38 6 3 23 15 38 25 51 35 140 60 218 61 183 2 334 -99 411 -273 20
-47 24 -71 24 -161 0 -106 0 -108 -43 -190 l-42 -84 39 -39 c47 -46 54 -44
100 38 75 132 92 298 46 445 -82 257 -319 409 -597 380z"/>
<path d="M2391 1506 c-178 -259 -106 -616 160 -787 163 -105 397 -110 569 -12
25 14 55 35 68 46 l22 21 -41 42 c-39 40 -44 42 -63 28 -16 -11 -67 -14 -262
-14 l-242 0 -57 56 c-148 146 -173 381 -58 546 l26 39 -38 39 c-22 22 -42 40
-47 40 -4 0 -21 -20 -37 -44z"/>
<path d="M2738 1524 c-51 -15 -57 -27 -33 -58 8 -11 15 -26 15 -33 0 -24 -21
-13 -42 23 -15 25 -24 32 -32 24 -15 -15 173 -203 217 -216 27 -8 41 -5 99 23
76 37 98 41 98 16 0 -12 -26 -32 -77 -60 l-77 -42 108 -110 c60 -61 113 -108
118 -105 16 10 8 24 -22 39 -16 9 -30 22 -30 30 0 19 2 19 43 -5 l35 -21 15
43 c9 24 18 58 21 76 5 32 5 32 -34 32 -29 0 -40 4 -40 15 0 11 11 15 38 15
l39 0 -7 43 c-9 51 -26 97 -38 97 -4 0 -17 -7 -28 -15 -10 -8 -25 -15 -31 -15
-24 0 -13 25 18 42 36 21 31 38 -33 92 l-41 36 -20 -33 c-25 -41 -24 -40 -37
-32 -7 5 -5 18 10 41 11 20 20 37 20 39 0 7 -102 35 -127 35 -20 0 -23 -5 -23
-40 0 -29 -4 -40 -15 -40 -11 0 -15 11 -15 40 0 46 -11 49 -92 24z"/>
<path d="M2561 1397 c-10 -12 -5 -19 24 -37 45 -28 33 -50 -13 -26 -17 9 -33
16 -36 16 -7 0 -36 -92 -36 -116 0 -19 6 -23 37 -26 52 -4 56 -28 4 -28 -36 0
-41 -3 -41 -23 0 -25 28 -127 35 -127 2 0 19 9 39 20 23 15 36 17 41 10 8 -13
9 -12 -33 -38 l-34 -20 37 -41 37 -40 219 -3 c120 -2 219 -1 219 2 0 13 -207
210 -221 210 -19 0 -59 41 -59 61 0 8 -46 61 -103 117 -87 87 -105 101 -116
89z m399 -417 l0 -30 -109 0 c-108 0 -109 0 -113 25 -3 13 -3 27 0 30 3 3 54
5 114 5 l108 0 0 -30z"/>
</g>
</svg>
