<?xml version="1.0" standalone="no"?>
<!DOCTYPE svg PUBLIC "-//W3C//DTD SVG 20010904//EN"
 "http://www.w3.org/TR/2001/REC-SVG-20010904/DTD/svg10.dtd">
<svg version="1.0" xmlns="http://www.w3.org/2000/svg"
 width="271.000000pt" height="271.000000pt" viewBox="0 0 271.000000 271.000000"
 preserveAspectRatio="xMidYMid meet">

<g transform="translate(0.000000,271.000000) scale(0.100000,-0.100000)"
fill="#000000" stroke="none">
<path d="M1225 2690 c-243 -26 -466 -110 -656 -246 -155 -112 -329 -314 -412
-479 -198 -395 -191 -872 20 -1252 442 -796 1518 -933 2145 -274 476 500 490
1268 35 1802 -98 115 -264 242 -412 317 -202 101 -497 155 -720 132z m150
-288 l130 -7 3 -92 c3 -88 2 -93 -18 -93 -19 0 -20 -6 -20 -113 0 -101 2 -116
20 -132 21 -19 27 -73 11 -90 -11 -13 321 -433 360 -457 l29 -18 0 -132 0
-133 -70 -38 c-39 -21 -70 -45 -70 -53 0 -9 -7 -14 -17 -12 -21 3 -173 -79
-173 -93 0 -5 -7 -9 -16 -9 -8 0 -46 -18 -84 -41 -38 -22 -75 -39 -82 -37 -7
2 -84 44 -170 93 l-157 90 -1 133 0 132 29 28 c16 15 97 139 180 276 139 232
149 251 135 270 -19 28 -19 60 1 52 30 -11 45 45 45 169 0 108 -1 115 -20 115
-14 0 -20 7 -20 22 0 17 -89 -67 -369 -346 -217 -217 -373 -366 -380 -362 -8
5 -11 78 -11 234 l0 227 216 216 216 216 87 -4 c47 -3 145 -8 216 -11z m-431
-1433 c192 -118 355 -213 361 -211 7 1 28 -13 46 -33 l33 -35 28 30 c15 17 34
30 43 30 9 0 176 92 372 205 195 113 363 205 374 205 17 0 19 -8 19 -70 0 -59
-3 -72 -20 -82 -19 -12 -20 -24 -20 -159 l0 -146 -25 -11 -25 -12 0 141 c0 77
-4 139 -8 137 -5 -2 -155 -88 -335 -192 l-327 -188 0 -144 c0 -131 -2 -144
-19 -154 -11 -5 -22 -10 -25 -10 -3 0 -6 63 -6 140 l0 140 -30 0 -29 0 -3
-140 -3 -140 -22 15 c-22 15 -23 22 -23 158 l0 142 -328 201 -327 200 -3 -138
c-1 -76 -5 -138 -8 -138 -3 0 -14 5 -25 10 -17 10 -19 23 -19 155 0 134 -1
146 -20 157 -17 11 -20 24 -20 87 0 71 1 73 23 69 12 -2 179 -101 371 -219z"/>
<path d="M1215 2290 l80 -80 73 73 73 72 -88 6 c-48 4 -117 7 -153 8 l-65 1
80 -80z"/>
<path d="M977 2262 l-77 -77 80 -80 80 -80 0 158 c0 86 -1 157 -3 157 -1 0
-37 -35 -80 -78z"/>
<path d="M1110 2180 l0 -155 77 78 78 77 -78 77 -77 78 0 -155z"/>
<path d="M785 2070 l-80 -80 160 0 160 0 -80 80 c-44 44 -80 80 -80 80 0 0
-36 -36 -80 -80z"/>
<path d="M795 1870 l80 -80 77 77 c43 43 78 79 78 80 0 2 -71 3 -157 3 l-158
0 80 -80z"/>
<path d="M1438 1925 c-10 -13 -18 -29 -18 -36 0 -7 6 -4 14 6 12 17 16 17 31
5 15 -13 16 -11 13 15 -4 37 -19 40 -40 10z"/>
<path d="M680 1753 l0 -158 80 80 80 80 -77 77 c-43 43 -79 78 -80 78 -2 0 -3
-71 -3 -157z"/>
<path d="M1300 1614 c-74 -123 -136 -228 -138 -234 -3 -7 6 -6 22 1 14 7 26
16 26 21 0 4 5 8 12 8 23 0 170 94 179 114 7 17 40 308 35 312 0 1 -62 -99
-136 -222z"/>
<path d="M1526 1707 c20 -60 41 -113 48 -118 19 -18 160 -98 164 -94 3 3 -202
270 -234 305 -8 8 2 -34 22 -93z"/>
<path d="M1456 1710 c-3 -47 -9 -107 -13 -134 l-6 -49 44 26 c24 15 45 30 46
34 2 5 -12 53 -30 108 l-34 100 -7 -85z"/>
<path d="M1488 1536 c-21 -11 -38 -23 -38 -26 0 -3 64 -43 142 -89 l142 -84
43 23 c24 13 43 26 43 30 0 31 -207 161 -263 165 -18 2 -48 -6 -69 -19z"/>
<path d="M1342 1451 c-34 -21 -67 -42 -73 -48 -7 -7 33 -36 132 -93 l142 -83
41 21 c23 12 58 33 80 46 l39 23 -135 81 c-74 45 -141 84 -149 86 -8 2 -42
-13 -77 -33z"/>
<path d="M1168 1351 c-49 -27 -65 -48 -50 -63 5 -5 66 -42 136 -83 l128 -75
62 36 c33 20 62 37 64 39 3 3 -287 176 -291 174 -1 -1 -23 -13 -49 -28z"/>
<path d="M1803 1338 l-53 -30 0 -115 0 -115 38 23 c90 55 82 39 82 160 0 60
-3 109 -7 108 -5 0 -32 -14 -60 -31z"/>
<path d="M1638 1243 l-78 -45 0 -115 0 -115 23 14 c12 8 48 30 80 48 l57 32 0
114 c0 63 -1 114 -2 113 -2 -1 -38 -21 -80 -46z"/>
<path d="M1072 1159 l3 -112 144 -83 c79 -46 145 -84 147 -84 3 0 3 50 2 111
l-3 111 -143 84 c-79 46 -145 84 -148 84 -2 0 -3 -50 -2 -111z"/>
<path d="M1463 1140 l-63 -35 0 -113 0 -113 58 32 c31 17 61 35 65 39 4 4 6
56 5 116 l-3 110 -62 -36z"/>
<path d="M600 1129 c0 -37 25 -88 51 -103 l28 -17 -14 48 c-8 26 -15 49 -15
49 0 1 -11 9 -25 18 -16 11 -25 12 -25 5z"/>
<path d="M2142 1097 c-14 -7 -27 -26 -36 -56 -7 -25 -12 -47 -11 -49 1 -1 13
2 27 8 17 8 28 25 36 57 7 25 11 47 10 48 -2 1 -13 -2 -26 -8z"/>
<path d="M730 1055 c0 -3 5 -25 11 -49 8 -31 19 -48 41 -61 31 -18 31 -18 24
1 -4 10 -10 31 -13 47 -5 23 -63 81 -63 62z"/>
<path d="M2002 1013 c-17 -16 -42 -71 -42 -95 0 -22 58 23 63 49 3 15 9 36 12
46 4 9 3 17 -3 17 -5 0 -19 -8 -30 -17z"/>
<path d="M863 964 c3 -10 9 -31 13 -47 6 -25 52 -73 61 -63 12 12 -24 89 -50
108 -28 20 -29 20 -24 2z"/>
<path d="M1878 944 c-19 -10 -31 -28 -39 -57 -6 -23 -13 -46 -16 -50 -3 -5 9
-1 26 7 17 9 31 18 31 19 0 1 7 23 15 50 8 26 13 47 12 47 -1 -1 -14 -7 -29
-16z"/>
<path d="M993 888 c3 -9 11 -34 16 -55 7 -26 20 -43 41 -55 17 -10 29 -14 26
-10 -2 4 -9 26 -15 49 -8 28 -22 49 -43 64 -25 18 -30 19 -25 7z"/>
<path d="M1738 860 c-14 -10 -28 -32 -31 -47 -3 -15 -9 -36 -12 -46 -7 -17 -6
-17 23 0 22 13 34 30 43 61 14 52 10 58 -23 32z"/>
<path d="M1136 771 c8 -26 26 -56 41 -68 15 -12 28 -21 30 -20 1 2 -5 25 -13
52 -10 36 -22 55 -43 66 l-28 17 13 -47z"/>
<path d="M1604 782 c-12 -9 -24 -29 -28 -44 -3 -14 -9 -34 -12 -43 -6 -16 -5
-16 23 -1 19 9 33 26 37 43 4 15 9 36 12 46 7 22 -5 21 -32 -1z"/>
<path d="M1260 722 c0 -40 45 -112 70 -112 10 0 -8 70 -23 88 -15 18 -47 35
-47 24z"/>
<path d="M1478 712 c-17 -10 -30 -30 -37 -56 -12 -49 -9 -53 22 -33 15 9 29
33 35 58 6 24 10 44 9 45 -1 2 -14 -5 -29 -14z"/>
</g>
</svg>
