<?xml version="1.0" standalone="no"?>
<!DOCTYPE svg PUBLIC "-//W3C//DTD SVG 20010904//EN"
 "http://www.w3.org/TR/2001/REC-SVG-20010904/DTD/svg10.dtd">
<svg version="1.0" xmlns="http://www.w3.org/2000/svg"
 width="419.000000pt" height="419.000000pt" viewBox="0 0 419.000000 419.000000"
 preserveAspectRatio="xMidYMid meet">

<g transform="translate(0.000000,419.000000) scale(0.100000,-0.100000)"
fill="#000000" stroke="none">
<path d="M1970 4183 c-158 -17 -235 -28 -290 -40 -36 -8 -77 -17 -92 -19 -15
-3 -67 -18 -115 -35 -48 -16 -99 -32 -112 -35 -14 -3 -36 -11 -50 -18 -14 -7
-73 -35 -130 -62 -92 -43 -245 -131 -283 -163 -7 -6 -42 -32 -78 -58 -78 -57
-318 -294 -382 -378 -76 -100 -153 -224 -212 -342 -31 -61 -56 -116 -56 -123
0 -6 -7 -21 -15 -33 -8 -13 -16 -32 -18 -42 -1 -11 -10 -40 -19 -65 -26 -76
-47 -144 -52 -170 -2 -14 -11 -54 -19 -90 -55 -246 -55 -584 0 -830 8 -36 17
-76 19 -90 5 -26 26 -94 52 -170 9 -25 18 -54 19 -65 2 -10 10 -29 18 -42 8
-12 15 -27 15 -33 0 -7 25 -62 56 -123 60 -119 137 -244 213 -342 53 -70 261
-282 341 -348 96 -79 272 -190 391 -246 63 -30 126 -60 140 -67 14 -7 36 -15
50 -18 13 -3 64 -19 112 -35 48 -17 100 -32 115 -35 15 -2 56 -11 92 -19 245
-55 585 -55 830 0 36 8 77 17 92 19 15 3 67 18 115 35 48 16 99 32 112 35 14
3 36 11 50 18 14 7 73 35 130 62 107 50 273 148 279 165 2 5 8 9 14 9 20 0
171 128 276 235 130 132 185 199 268 325 61 93 174 308 174 330 0 6 7 21 15
33 8 13 16 32 18 42 1 11 10 40 19 65 26 76 47 144 52 170 2 14 11 54 19 90
26 117 42 272 42 415 0 143 -16 298 -42 415 -8 36 -17 76 -19 90 -5 26 -26 94
-52 170 -9 25 -18 54 -19 65 -2 10 -10 29 -18 42 -8 12 -15 27 -15 33 0 7 -25
62 -56 123 -60 119 -137 243 -213 342 -94 123 -413 425 -449 425 -6 0 -12 4
-14 9 -6 17 -172 115 -279 165 -57 27 -116 55 -130 62 -14 7 -36 15 -50 18
-13 3 -64 19 -112 35 -48 17 -100 32 -115 35 -15 2 -56 11 -92 19 -120 27
-439 51 -540 40z m770 -748 c71 -64 29 -190 -67 -201 -76 -10 -141 62 -124
138 12 50 18 58 63 78 45 20 96 14 128 -15z m27 -247 c12 -13 76 -97 142 -187
79 -107 121 -173 121 -189 0 -49 -46 -76 -89 -52 -10 5 -49 51 -87 102 l-69
92 -3 -99 c-2 -55 4 -147 12 -205 48 -327 67 -488 64 -522 l-4 -38 533 0 533
0 0 -47 c-1 -250 -68 -544 -179 -778 -91 -192 -187 -329 -341 -489 -221 -229
-456 -379 -749 -477 -928 -310 -1942 164 -2304 1076 -79 198 -127 432 -127
618 l0 97 865 0 865 0 0 -158 0 -157 -65 -17 c-237 -63 -424 -240 -505 -478
-32 -93 -39 -283 -15 -383 50 -209 194 -392 380 -482 118 -57 110 -60 124 47
7 51 26 187 42 301 21 146 29 239 27 308 l-3 100 -64 -86 c-35 -48 -75 -92
-88 -98 -49 -22 -99 33 -77 84 5 11 65 96 134 189 l125 170 104 -3 105 -2 118
-160 c145 -196 154 -210 139 -242 -6 -13 -22 -29 -36 -35 -35 -16 -62 5 -142
111 l-63 82 0 -123 c0 -90 11 -200 39 -402 22 -153 42 -280 45 -283 9 -9 130
45 194 87 96 62 195 175 246 282 102 213 101 430 -5 648 -34 70 -58 101 -133
176 -100 100 -194 155 -319 189 l-67 18 0 158 0 159 105 0 105 0 -10 26 c-8
20 6 83 70 320 76 281 80 300 80 400 l0 106 -31 -26 c-17 -14 -39 -26 -49 -26
-11 0 -75 27 -143 59 -95 46 -126 66 -136 87 -11 24 -10 31 7 53 28 39 58 36
162 -12 l95 -45 44 62 c83 115 84 116 176 116 72 0 84 -3 102 -22z m-654
-1512 c92 -38 87 -174 -7 -206 -44 -14 -80 -5 -116 32 -54 53 -37 136 35 172
37 19 47 20 88 2z"/>
<path d="M2641 2535 c-8 -27 -29 -106 -48 -175 -18 -69 -44 -158 -56 -197
l-23 -73 107 0 107 0 -8 33 c-8 28 -40 250 -59 407 l-6 55 -14 -50z"/>
<path d="M2061 745 c-1 -5 -6 -37 -11 -70 -5 -33 -17 -114 -25 -180 -9 -66
-18 -128 -21 -137 -5 -16 2 -18 60 -18 51 0 64 3 60 14 -3 7 -18 101 -34 207
-15 107 -28 190 -29 184z"/>
</g>
</svg>
