<?xml version="1.0" standalone="no"?>
<!DOCTYPE svg PUBLIC "-//W3C//DTD SVG 20010904//EN"
 "http://www.w3.org/TR/2001/REC-SVG-20010904/DTD/svg10.dtd">
<svg version="1.0" xmlns="http://www.w3.org/2000/svg"
 width="271.000000pt" height="271.000000pt" viewBox="0 0 271.000000 271.000000"
 preserveAspectRatio="xMidYMid meet">

<g transform="translate(0.000000,271.000000) scale(0.100000,-0.100000)"
fill="#000000" stroke="none">
<path d="M1225 2690 c-243 -26 -466 -110 -656 -246 -155 -112 -329 -314 -412
-479 -198 -395 -191 -872 20 -1252 442 -796 1518 -933 2145 -274 476 500 490
1268 35 1802 -98 115 -264 242 -412 317 -202 101 -497 155 -720 132z m712
-432 c-3 -7 -92 -200 -197 -428 -106 -228 -196 -425 -201 -438 l-9 -23 115 7
115 7 0 -103 c0 -56 5 -119 11 -139 10 -35 7 -46 -85 -241 -53 -112 -96 -207
-96 -211 0 -4 36 -10 80 -14 44 -4 80 -10 80 -14 0 -6 -121 -117 -286 -264
l-43 -38 -50 158 c-71 226 -70 216 -35 210 16 -3 47 -9 70 -12 l41 -6 78 226
c42 124 75 228 73 230 -2 2 -68 -3 -147 -11 -78 -9 -145 -13 -148 -10 -5 4
198 826 259 1052 l8 31 167 20 c213 26 206 25 200 11z m199 -485 c44 -28 54
-57 54 -152 0 -85 1 -89 24 -95 13 -3 38 -22 55 -41 l31 -36 0 -150 c0 -172
-8 -197 -70 -229 -34 -17 -59 -20 -185 -20 -165 0 -198 9 -236 61 -22 31 -24
46 -27 165 -3 115 -1 138 16 178 15 33 31 50 56 63 36 17 36 17 36 82 0 118
30 174 102 191 42 11 115 2 144 -17z m-1219 -45 c124 -45 221 -152 258 -282
44 -152 -6 -321 -127 -430 -88 -80 -145 -100 -283 -101 -103 0 -114 2 -178 32
-267 127 -327 474 -118 684 118 118 291 155 448 97z"/>
<path d="M2010 1733 c-42 -15 -50 -34 -50 -115 l0 -78 85 0 85 0 0 63 c0 34
-3 72 -6 85 -10 37 -71 61 -114 45z"/>
<path d="M2012 1378 c-15 -15 -16 -50 -1 -65 9 -9 8 -22 -5 -53 -9 -22 -16
-43 -16 -45 0 -3 25 -5 56 -5 50 0 55 2 49 18 -24 60 -27 74 -16 85 15 15 14
50 -1 65 -7 7 -21 12 -33 12 -12 0 -26 -5 -33 -12z"/>
<path d="M770 1548 l0 -135 27 -12 c26 -12 30 -9 122 84 l96 96 -25 21 c-43
35 -120 69 -171 75 l-49 6 0 -135z"/>
<path d="M493 1548 c-33 -37 -64 -105 -70 -160 -6 -46 -4 -50 13 -45 10 3 69
11 129 18 61 6 116 15 122 18 8 4 -20 39 -80 99 l-93 93 -21 -23z"/>
<path d="M732 1392 c-9 -7 -8 -13 8 -27 20 -18 20 -18 20 8 0 28 -6 32 -28 19z"/>
<path d="M790 1345 c-23 -25 -25 -25 -194 -26 l-171 -1 137 -19 c75 -10 151
-25 168 -34 39 -20 74 -13 96 20 17 25 16 76 -2 82 -5 2 -21 -8 -34 -22z"/>
<path d="M437 1283 c-9 -9 -9 -61 1 -66 4 -3 7 12 7 34 0 21 0 39 -1 39 0 0
-4 -3 -7 -7z"/>
<path d="M475 1250 c0 -21 3 -36 8 -33 4 2 7 17 7 33 0 16 -3 31 -7 33 -5 3
-8 -12 -8 -33z"/>
</g>
</svg>
