<?xml version="1.0" standalone="no"?>
<!DOCTYPE svg PUBLIC "-//W3C//DTD SVG 20010904//EN"
 "http://www.w3.org/TR/2001/REC-SVG-20010904/DTD/svg10.dtd">
<svg version="1.0" xmlns="http://www.w3.org/2000/svg"
 width="271.000000pt" height="271.000000pt" viewBox="0 0 271.000000 271.000000"
 preserveAspectRatio="xMidYMid meet">

<g transform="translate(0.000000,271.000000) scale(0.100000,-0.100000)"
fill="#000000" stroke="none">
<path d="M1225 2690 c-243 -26 -466 -110 -656 -246 -155 -112 -329 -314 -412
-479 -198 -395 -191 -872 20 -1252 442 -796 1518 -933 2145 -274 476 500 490
1268 35 1802 -98 115 -264 242 -412 317 -202 101 -497 155 -720 132z m136
-337 c33 -20 48 -47 21 -39 -9 3 -38 8 -64 11 -42 6 -50 4 -73 -19 -23 -23
-26 -34 -23 -72 3 -40 1 -44 -17 -42 -17 3 -21 12 -23 56 -3 49 0 56 31 87 29
29 42 35 77 35 23 0 55 -8 71 -17z m40 -79 c16 -17 22 -36 22 -69 l0 -45 67 0
c44 0 71 -5 79 -13 15 -19 25 -72 17 -101 -14 -55 -19 -56 -256 -56 l-220 0
-16 25 c-21 33 -20 102 2 126 14 15 31 19 85 19 l67 0 -5 39 c-12 91 95 142
158 75z m-345 -156 c-3 -13 -6 -29 -6 -35 0 -10 -33 -13 -130 -13 l-130 0 0
-785 0 -785 545 0 545 0 0 785 0 784 -132 3 -133 3 -3 33 -3 32 165 0 166 0 0
-850 0 -850 -610 0 -610 0 0 850 0 850 171 0 171 0 -6 -22z m714 -286 c0 -4
-18 -32 -40 -61 -38 -51 -110 -187 -110 -208 0 -5 -11 -20 -24 -32 l-23 -22
-27 45 c-14 25 -34 49 -43 55 -14 8 -15 12 -4 25 19 23 46 20 65 -6 11 -15 19
-19 22 -11 37 84 184 256 184 215z m-390 -192 l0 -50 -230 0 -230 0 0 50 0 50
230 0 230 0 0 -50z m375 -223 c-50 -70 -92 -140 -116 -196 -14 -34 -35 -72
-46 -83 -20 -20 -20 -19 -47 26 -14 25 -34 49 -43 55 -14 8 -15 12 -4 25 19
23 46 20 65 -6 11 -15 19 -19 22 -11 15 33 88 138 125 178 41 44 75 53 44 12z
m-375 -167 l0 -50 -230 0 -230 0 0 50 0 50 230 0 230 0 0 -50z m383 -213 c-4
-7 -19 -28 -35 -47 -31 -40 -108 -184 -108 -204 0 -7 -11 -23 -24 -35 l-23
-22 -27 45 c-14 25 -34 49 -43 55 -14 8 -15 12 -4 25 19 23 46 20 65 -6 11
-15 19 -19 22 -11 30 68 159 227 175 217 5 -3 6 -11 2 -17z m-383 -177 l0 -50
-230 0 -230 0 0 50 0 50 230 0 230 0 0 -50z"/>
<path d="M1317 2234 c-9 -10 2 -24 19 -24 8 0 14 7 14 15 0 15 -21 21 -33 9z"/>
</g>
</svg>
