<?xml version="1.0" standalone="no"?>
<!DOCTYPE svg PUBLIC "-//W3C//DTD SVG 20010904//EN"
 "http://www.w3.org/TR/2001/REC-SVG-20010904/DTD/svg10.dtd">
<svg version="1.0" xmlns="http://www.w3.org/2000/svg"
 width="271.000000pt" height="271.000000pt" viewBox="0 0 271.000000 271.000000"
 preserveAspectRatio="xMidYMid meet">

<g transform="translate(0.000000,271.000000) scale(0.100000,-0.100000)"
fill="#000000" stroke="none">
<path d="M1225 2690 c-243 -26 -466 -110 -656 -246 -155 -112 -329 -314 -412
-479 -198 -395 -191 -872 20 -1252 442 -796 1518 -933 2145 -274 476 500 490
1268 35 1802 -98 115 -264 242 -412 317 -202 101 -497 155 -720 132z m150
-495 c0 -110 -2 -120 -19 -123 -34 -7 -46 25 -46 117 0 115 6 133 39 129 l26
-3 0 -120z m161 -37 c41 -61 50 -122 29 -194 -57 -195 -327 -217 -419 -33 -52
105 -18 231 78 290 41 25 46 24 46 -9 0 -19 -11 -39 -34 -61 -68 -66 -69 -170
-2 -237 69 -69 186 -63 245 12 55 70 47 163 -20 226 -29 28 -39 45 -39 68 l0
31 43 -23 c24 -13 56 -43 73 -70z m-687 -172 c31 -17 51 -54 51 -96 0 -86 -83
-135 -165 -98 -71 32 -73 156 -4 194 32 18 83 17 118 0z m1180 -180 c31 -17
51 -54 51 -96 0 -86 -83 -135 -165 -98 -71 32 -73 156 -4 194 32 18 83 17 118
0z m-1281 -55 c70 -21 71 -22 143 -114 40 -50 73 -93 73 -93 1 -1 38 -5 84 -9
l82 -7 0 36 0 36 55 0 c44 0 53 -3 49 -15 -4 -9 -19 -15 -40 -15 l-34 0 0
-280 0 -280 190 0 190 0 0 168 c0 167 0 169 -25 190 -16 14 -25 32 -25 51 0
20 8 36 25 49 19 15 25 29 25 61 l0 41 -40 0 c-29 0 -40 4 -40 15 0 12 13 15
55 15 l55 0 0 -61 0 -60 92 -44 92 -44 49 67 c83 115 79 112 171 112 45 0 86
-4 93 -8 21 -13 262 -345 269 -370 9 -33 -3 -70 -27 -77 -43 -14 -68 4 -144
107 l-75 102 0 -109 c0 -74 13 -204 40 -395 22 -157 40 -304 40 -327 0 -71
-54 -105 -107 -68 -27 19 -29 29 -67 302 l-31 223 -63 -233 c-34 -127 -71
-243 -81 -257 -23 -31 -75 -39 -102 -14 -12 10 -19 30 -19 52 0 19 34 158 75
309 72 264 75 278 75 385 l0 111 -23 -21 c-36 -34 -85 -28 -177 18 l-80 40 0
-175 0 -175 -220 0 -220 0 0 204 0 203 -112 7 -113 6 -41 47 -42 47 -31 -62
-31 -61 0 -384 c0 -427 3 -411 -66 -411 -68 0 -69 2 -72 319 -2 173 -7 285
-12 285 -6 0 -10 -108 -10 -279 0 -257 -1 -281 -19 -302 -13 -17 -29 -23 -56
-23 -65 0 -65 -1 -65 365 0 271 3 347 19 450 11 69 17 136 14 151 -4 19 8 51
42 115 27 48 55 94 64 101 19 16 50 12 149 -17z m630 -105 c9 -23 20 -36 35
-38 17 -2 23 -11 25 -35 l3 -33 -90 0 -91 0 0 30 c0 18 6 33 15 36 8 4 15 16
15 28 0 29 18 46 50 46 21 0 29 -7 38 -34z m82 -231 c0 -3 -16 -27 -35 -53
-19 -27 -48 -78 -65 -115 -38 -80 -58 -100 -74 -73 -6 10 -21 31 -34 47 -13
16 -21 33 -17 39 10 17 44 11 57 -9 10 -17 15 -14 45 38 45 74 123 154 123
126z"/>
<path d="M1315 1649 c-11 -16 -1 -19 13 -3 7 8 8 14 3 14 -5 0 -13 -5 -16 -11z"/>
</g>
</svg>
