<?xml version="1.0" standalone="no"?>
<!DOCTYPE svg PUBLIC "-//W3C//DTD SVG 20010904//EN"
 "http://www.w3.org/TR/2001/REC-SVG-20010904/DTD/svg10.dtd">
<svg version="1.0" xmlns="http://www.w3.org/2000/svg"
 width="536.000000pt" height="538.000000pt" viewBox="0 0 536.000000 538.000000"
 preserveAspectRatio="xMidYMid meet">

<g transform="translate(0.000000,538.000000) scale(0.100000,-0.100000)"
fill="#000000" stroke="none">
<path d="M2495 5354 c-5 -2 -57 -8 -115 -13 -110 -11 -197 -24 -265 -40 -22
-6 -58 -14 -80 -20 -103 -24 -206 -55 -270 -82 -16 -6 -38 -14 -47 -15 -9 -2
-33 -13 -53 -24 -19 -11 -40 -20 -46 -20 -15 0 -236 -108 -251 -123 -7 -7 -34
-23 -60 -36 -27 -13 -48 -28 -48 -33 0 -4 -6 -8 -13 -8 -7 0 -24 -10 -37 -22
-14 -13 -26 -21 -28 -19 -2 1 -15 -6 -28 -18 -13 -12 -27 -21 -32 -21 -4 0
-21 -14 -39 -30 -18 -17 -36 -30 -40 -30 -4 0 -27 -18 -51 -40 -23 -22 -46
-40 -50 -40 -17 0 -351 -353 -375 -395 -5 -10 -19 -29 -31 -42 -11 -14 -20
-27 -18 -29 1 -3 -11 -19 -28 -37 -16 -17 -30 -35 -30 -39 0 -4 -13 -27 -30
-51 -16 -25 -30 -50 -30 -56 0 -6 -4 -11 -8 -11 -5 0 -20 -21 -33 -47 -13 -27
-27 -49 -31 -51 -5 -2 -8 -12 -8 -23 0 -10 -4 -19 -10 -19 -5 0 -10 -9 -10
-20 0 -11 -4 -20 -10 -20 -5 0 -10 -9 -10 -20 0 -11 -4 -20 -10 -20 -5 0 -10
-7 -10 -15 0 -8 -9 -30 -20 -50 -11 -20 -20 -44 -20 -55 0 -11 -4 -20 -10 -20
-5 0 -10 -9 -10 -19 0 -11 -4 -23 -10 -26 -5 -3 -10 -17 -10 -30 0 -13 -3 -25
-8 -27 -9 -4 -52 -130 -52 -155 0 -11 -3 -23 -7 -27 -10 -10 -32 -96 -33 -128
0 -15 -4 -30 -10 -33 -6 -3 -10 -25 -10 -49 0 -23 -4 -46 -9 -51 -10 -11 -17
-72 -27 -230 -3 -55 -10 -104 -15 -109 -12 -14 -12 -243 1 -251 6 -3 10 -32
10 -63 0 -49 9 -123 36 -307 10 -72 62 -268 98 -370 105 -303 273 -602 465
-830 161 -192 382 -392 576 -522 105 -71 310 -181 432 -232 134 -57 326 -115
523 -160 224 -51 260 -53 606 -49 l319 5 180 47 c99 26 247 69 330 97 624 208
1191 710 1488 1317 114 233 180 439 247 772 32 159 52 552 31 612 -6 17 -13
67 -17 112 -7 106 -65 380 -110 521 -41 129 -190 468 -212 485 -4 3 -19 26
-32 53 -14 26 -28 47 -32 47 -5 0 -8 5 -8 11 0 12 -78 133 -109 168 -12 13
-21 27 -21 30 0 3 -18 26 -40 49 -22 24 -40 47 -40 52 0 11 -264 274 -308 308
-20 15 -52 42 -71 60 -19 17 -38 32 -42 32 -3 0 -22 13 -40 30 -19 16 -37 30
-40 30 -3 0 -19 11 -35 25 -16 14 -35 25 -41 25 -7 0 -13 3 -13 8 0 4 -21 18
-47 32 -27 14 -54 31 -62 38 -7 7 -31 21 -52 30 -22 9 -39 20 -39 24 0 5 -9 8
-20 8 -11 0 -20 5 -20 10 0 6 -9 10 -20 10 -11 0 -20 5 -20 10 0 6 -6 10 -13
10 -7 0 -39 13 -72 30 -33 16 -68 30 -77 30 -10 0 -18 5 -18 10 0 6 -9 10 -19
10 -11 0 -23 5 -26 10 -3 6 -17 10 -30 10 -13 0 -27 5 -30 10 -3 6 -15 10 -26
10 -10 0 -27 4 -37 9 -17 9 -83 30 -112 35 -8 2 -22 5 -30 8 -38 14 -100 28
-122 28 -13 0 -28 4 -34 9 -5 5 -31 12 -59 15 -27 4 -86 11 -130 17 -80 11
-511 22 -530 13z m-15 -924 c0 -5 8 -10 18 -10 10 0 24 -9 32 -20 8 -11 20
-20 27 -20 16 0 183 -165 183 -181 0 -6 18 -28 40 -49 22 -21 40 -45 40 -52 0
-7 9 -20 20 -28 11 -8 20 -21 20 -30 0 -9 9 -22 20 -30 11 -8 20 -21 20 -30 0
-9 9 -22 20 -30 11 -8 20 -22 20 -32 0 -10 5 -18 10 -18 6 0 10 -9 10 -20 0
-11 5 -20 10 -20 6 0 10 -9 10 -20 0 -11 5 -20 10 -20 6 0 10 -9 10 -20 0 -11
5 -20 10 -20 6 0 10 -9 10 -20 0 -11 5 -20 10 -20 6 0 10 -13 10 -30 0 -16 5
-30 10 -30 6 0 10 -9 10 -20 0 -11 5 -20 10 -20 6 0 10 -13 10 -30 0 -16 5
-30 10 -30 6 0 10 -13 10 -30 0 -16 5 -30 10 -30 6 0 10 -22 10 -50 0 -27 5
-50 10 -50 6 0 10 -27 10 -60 0 -33 4 -60 10 -60 6 0 10 -83 10 -230 0 -147
-4 -230 -10 -230 -6 0 -10 -27 -10 -60 0 -33 -4 -60 -10 -60 -5 0 -10 -18 -10
-39 0 -22 -5 -41 -12 -44 -8 -2 -9 -8 -4 -13 5 -5 11 -4 13 4 3 6 13 12 24 12
10 0 19 5 19 10 0 6 7 10 15 10 20 0 105 85 105 105 0 8 5 15 10 15 6 0 10 9
10 20 0 11 5 20 10 20 6 0 10 9 10 20 0 11 5 20 10 20 6 0 10 23 10 50 0 28 5
50 10 50 6 0 10 37 10 90 0 75 3 90 15 90 19 0 65 -44 65 -62 0 -8 9 -20 20
-28 11 -8 20 -21 20 -30 0 -9 9 -22 20 -30 11 -8 20 -22 20 -32 0 -10 5 -18
10 -18 6 0 10 -9 10 -20 0 -11 5 -20 10 -20 6 0 10 -9 10 -20 0 -11 5 -20 10
-20 6 0 10 -9 10 -20 0 -11 5 -20 10 -20 6 0 10 -9 10 -20 0 -11 5 -20 10 -20
6 0 10 -13 10 -30 0 -16 5 -30 10 -30 6 0 10 -13 10 -30 0 -16 5 -30 10 -30 6
0 10 -13 10 -30 0 -16 5 -30 10 -30 6 0 10 -13 10 -30 0 -16 5 -30 10 -30 6 0
10 -18 10 -40 0 -22 5 -40 10 -40 6 0 10 -27 10 -60 0 -33 4 -60 10 -60 6 0
10 -63 10 -170 0 -107 -4 -170 -10 -170 -6 0 -10 -27 -10 -60 0 -33 -4 -60
-10 -60 -5 0 -10 -18 -10 -40 0 -22 -4 -40 -10 -40 -5 0 -10 -13 -10 -30 0
-16 -4 -30 -10 -30 -5 0 -10 -13 -10 -30 0 -16 -4 -30 -10 -30 -5 0 -10 -9
-10 -20 0 -11 -4 -20 -10 -20 -5 0 -10 -9 -10 -20 0 -11 -4 -20 -10 -20 -5 0
-10 -13 -10 -28 0 -16 -8 -34 -20 -42 -11 -8 -20 -22 -20 -32 0 -10 -4 -18
-10 -18 -5 0 -10 -9 -10 -20 0 -11 -4 -20 -10 -20 -5 0 -10 -8 -10 -18 0 -10
-9 -24 -20 -32 -11 -8 -20 -21 -20 -28 0 -8 -13 -27 -30 -42 -16 -15 -30 -33
-30 -40 0 -7 -13 -25 -30 -40 -16 -15 -30 -33 -30 -39 0 -15 -246 -261 -261
-261 -6 0 -24 -13 -39 -30 -15 -16 -34 -30 -42 -30 -7 0 -20 -9 -28 -20 -13
-18 -70 -30 -70 -14 0 3 18 23 40 44 22 21 40 45 40 52 0 7 9 20 20 28 11 8
20 21 20 30 0 9 9 22 20 30 11 8 20 21 20 30 0 9 9 22 20 30 11 8 20 22 20 32
0 10 5 18 10 18 6 0 10 9 10 20 0 11 5 20 10 20 6 0 10 9 10 20 0 11 5 20 10
20 6 0 10 14 10 30 0 17 5 30 10 30 6 0 10 18 10 40 0 22 5 40 10 40 6 0 10
23 10 50 0 28 5 50 10 50 6 0 10 40 10 100 0 60 -4 100 -10 100 -5 0 -10 23
-10 50 0 28 -4 50 -10 50 -5 0 -10 14 -10 30 0 17 -4 30 -10 30 -5 0 -10 14
-10 30 0 17 -4 30 -10 30 -5 0 -10 14 -10 30 0 17 -4 30 -10 30 -5 0 -10 9
-10 20 0 11 -4 20 -10 20 -5 0 -10 9 -10 20 0 11 -4 20 -10 20 -5 0 -10 9 -10
20 0 11 -4 20 -10 20 -5 0 -10 9 -10 20 0 11 -4 20 -10 20 -5 0 -10 8 -10 18
0 10 -9 24 -20 32 -11 8 -20 21 -20 30 0 9 -9 22 -20 30 -11 8 -20 22 -20 32
0 10 -4 18 -10 18 -5 0 -10 8 -10 18 0 10 -9 24 -20 32 -11 8 -20 21 -20 30 0
9 -9 22 -20 30 -11 8 -20 22 -20 32 0 10 -4 18 -10 18 -5 0 -10 9 -10 20 0 11
-4 20 -10 20 -5 0 -10 9 -10 20 0 11 -4 20 -10 20 -5 0 -10 9 -10 20 0 11 -4
20 -10 20 -5 0 -10 9 -10 20 0 11 -4 20 -10 20 -5 0 -10 14 -10 30 0 17 -4 30
-10 30 -5 0 -10 18 -10 40 0 22 -4 40 -10 40 -6 0 -10 33 -10 80 0 47 4 80 10
80 6 0 10 23 10 50 0 28 5 50 10 50 6 0 10 14 10 30 0 20 -5 30 -15 30 -19 0
-145 -124 -145 -143 0 -7 -9 -19 -20 -27 -11 -8 -20 -21 -20 -30 0 -9 -9 -22
-20 -30 -11 -8 -20 -22 -20 -32 0 -10 -4 -18 -10 -18 -5 0 -10 -9 -10 -20 0
-11 -4 -20 -10 -20 -5 0 -10 -9 -10 -20 0 -11 -4 -20 -10 -20 -5 0 -10 -13
-10 -30 0 -16 -4 -30 -10 -30 -5 0 -10 -9 -10 -20 0 -11 -4 -20 -10 -20 -5 0
-10 -13 -10 -30 0 -16 -4 -30 -10 -30 -5 0 -10 -18 -10 -40 0 -22 -4 -40 -10
-40 -6 0 -10 -77 -10 -210 0 -133 4 -210 10 -210 6 0 10 -40 10 -100 0 -93 -1
-100 -20 -100 -11 0 -20 5 -20 10 0 6 -9 10 -20 10 -13 0 -20 7 -20 18 0 10
-9 24 -20 32 -11 8 -20 22 -20 32 0 10 -4 18 -10 18 -5 0 -10 14 -10 30 0 17
-4 30 -10 30 -6 0 -10 27 -10 60 0 33 -4 60 -10 60 -5 0 -10 -8 -10 -18 0 -10
-9 -24 -20 -32 -11 -8 -20 -22 -20 -32 0 -10 -4 -18 -10 -18 -5 0 -10 -9 -10
-20 0 -11 -4 -20 -10 -20 -5 0 -10 -13 -10 -30 0 -16 -4 -30 -10 -30 -5 0 -10
-9 -10 -20 0 -11 -4 -20 -10 -20 -5 0 -10 -18 -10 -40 0 -22 -4 -40 -10 -40
-5 0 -10 -22 -10 -50 0 -27 -4 -50 -10 -50 -6 0 -10 -50 -10 -130 0 -80 4
-130 10 -130 6 0 10 -18 10 -40 0 -22 5 -40 10 -40 6 0 10 -13 10 -30 0 -16 5
-30 10 -30 6 0 10 -13 10 -30 0 -16 5 -30 10 -30 6 0 10 -9 10 -20 0 -11 5
-20 10 -20 6 0 10 -9 10 -20 0 -11 5 -20 10 -20 6 0 10 -9 10 -20 0 -11 5 -20
10 -20 6 0 10 -7 10 -16 0 -9 14 -29 30 -44 17 -15 30 -33 30 -40 0 -6 18 -29
40 -50 22 -21 40 -44 40 -50 0 -7 13 -25 30 -40 34 -31 37 -40 15 -40 -17 0
-385 364 -385 381 0 6 -18 28 -40 49 -22 21 -40 44 -40 50 0 7 -14 25 -30 40
-17 15 -30 34 -30 42 0 7 -9 20 -20 28 -11 8 -20 21 -20 30 0 9 -9 22 -20 30
-11 8 -20 22 -20 32 0 10 -4 18 -10 18 -5 0 -10 9 -10 20 0 11 -4 20 -10 20
-5 0 -10 8 -10 18 0 10 -9 24 -20 32 -11 8 -20 22 -20 32 0 10 -4 18 -10 18
-5 0 -10 9 -10 20 0 11 -4 20 -10 20 -5 0 -10 14 -10 30 0 17 -4 30 -10 30 -5
0 -10 9 -10 20 0 11 -4 20 -10 20 -5 0 -10 14 -10 30 0 17 -4 30 -10 30 -5 0
-10 14 -10 30 0 17 -4 30 -10 30 -5 0 -10 18 -10 40 0 22 -4 40 -10 40 -5 0
-10 23 -10 50 0 28 -4 50 -10 50 -6 0 -10 50 -10 130 0 80 4 130 10 130 6 0
10 23 10 50 0 28 5 50 10 50 6 0 10 14 10 30 0 17 5 30 10 30 6 0 10 14 10 30
0 17 5 30 10 30 6 0 10 9 10 20 0 11 5 20 10 20 6 0 10 9 10 20 0 11 5 20 10
20 6 0 10 9 10 20 0 11 5 20 10 20 6 0 10 8 10 18 0 10 9 24 20 32 11 8 20 21
20 30 0 9 9 22 20 30 11 8 20 22 20 32 0 10 5 18 10 18 6 0 10 8 10 18 0 10 9
24 20 32 11 8 20 21 20 30 0 9 9 22 20 30 11 8 20 21 20 28 0 8 14 27 30 42
17 15 30 34 30 42 0 7 9 20 20 28 11 8 20 21 20 28 0 8 14 27 30 42 17 15 30
33 30 40 0 6 18 29 40 50 22 21 40 44 40 50 0 6 18 29 40 50 22 21 40 44 40
50 0 6 23 33 50 60 28 27 50 54 50 60 0 7 14 25 30 40 17 15 30 34 30 42 0 7
9 20 20 28 11 8 20 21 20 30 0 9 9 22 20 30 11 8 20 22 20 32 0 10 5 18 10 18
6 0 10 14 10 30 0 17 5 30 10 30 6 0 10 18 10 40 0 22 5 40 10 40 6 0 10 47
10 120 0 73 -4 120 -10 120 -5 0 -10 18 -10 40 0 22 -4 40 -10 40 -5 0 -10 9
-10 20 0 11 -4 20 -10 20 -5 0 -10 14 -10 30 0 17 -4 30 -10 30 -5 0 -10 9
-10 20 0 11 -4 20 -10 20 -5 0 -10 14 -10 30 0 28 2 30 40 30 22 0 40 -4 40
-10z m140 -2420 c0 -5 7 -10 15 -10 19 0 85 -64 85 -82 0 -8 9 -20 20 -28 11
-8 20 -21 20 -30 0 -9 9 -22 20 -30 12 -8 20 -26 20 -42 0 -15 5 -28 10 -28 6
0 10 -13 10 -30 0 -16 5 -30 10 -30 6 0 10 -50 10 -130 0 -80 4 -130 10 -130
6 0 10 8 10 18 0 10 9 24 20 32 15 11 20 26 20 62 0 26 2 48 5 48 13 0 55 -50
55 -65 0 -8 5 -15 10 -15 6 0 10 -9 10 -20 0 -11 5 -20 10 -20 6 0 10 -13 10
-30 0 -16 5 -30 10 -30 6 0 10 -22 10 -50 0 -27 5 -50 10 -50 6 0 10 -22 10
-50 0 -27 -4 -50 -10 -50 -5 0 -10 -18 -10 -40 0 -22 -4 -40 -10 -40 -5 0 -10
-13 -10 -30 0 -16 -4 -30 -10 -30 -5 0 -10 -9 -10 -20 0 -11 -4 -20 -10 -20
-5 0 -10 -7 -10 -16 0 -8 -18 -33 -40 -54 -22 -21 -40 -44 -40 -50 0 -16 -26
-40 -42 -40 -8 0 -20 -9 -28 -20 -14 -19 -50 -28 -50 -12 0 4 9 14 20 22 11 8
20 22 20 32 0 10 5 18 10 18 6 0 10 9 10 20 0 11 5 20 10 20 6 0 10 14 10 30
0 17 5 30 10 30 6 0 10 27 10 60 0 33 -4 60 -10 60 -5 0 -10 13 -10 28 0 16
-8 34 -20 42 -11 8 -20 21 -20 28 0 8 -13 27 -30 42 -16 15 -30 35 -30 44 0 9
-4 16 -10 16 -5 0 -10 9 -10 20 0 11 -4 20 -10 20 -5 0 -10 23 -10 50 0 28 -2
50 -5 50 -13 0 -55 -50 -55 -65 0 -8 -4 -15 -10 -15 -5 0 -10 -13 -10 -30 0
-16 -4 -30 -10 -30 -6 0 -10 -37 -10 -90 0 -83 -1 -90 -20 -90 -12 0 -20 7
-20 16 0 15 -23 44 -34 44 -3 0 -6 -13 -6 -30 0 -16 -4 -30 -10 -30 -6 0 -10
-37 -10 -90 0 -53 4 -90 10 -90 6 0 10 -9 10 -20 0 -11 5 -20 10 -20 6 0 10
-7 10 -16 0 -9 14 -29 30 -44 34 -32 37 -40 15 -40 -18 0 -105 84 -105 101 0
6 -13 24 -30 39 -17 15 -30 34 -30 42 0 7 -9 20 -20 28 -11 8 -20 22 -20 32 0
10 -4 18 -10 18 -5 0 -10 9 -10 20 0 11 -4 20 -10 20 -5 0 -10 14 -10 30 0 17
-4 30 -10 30 -6 0 -10 40 -10 100 0 60 4 100 10 100 6 0 10 9 10 20 0 11 5 20
10 20 6 0 10 8 10 18 0 10 9 24 20 32 11 8 20 21 20 30 0 9 9 22 20 30 11 8
20 21 20 28 0 8 14 27 30 42 17 15 30 33 30 40 0 6 18 29 40 50 22 21 40 46
40 54 0 9 5 16 10 16 6 0 10 9 10 20 0 11 5 20 10 20 6 0 10 27 10 60 0 33 -4
60 -10 60 -5 0 -10 14 -10 30 0 17 -4 30 -10 30 -5 0 -10 5 -10 10 0 6 9 10
20 10 11 0 20 -4 20 -10z"/>
</g>
</svg>
