<?xml version="1.0" standalone="no"?>
<!DOCTYPE svg PUBLIC "-//W3C//DTD SVG 20010904//EN"
 "http://www.w3.org/TR/2001/REC-SVG-20010904/DTD/svg10.dtd">
<svg version="1.0" xmlns="http://www.w3.org/2000/svg"
 width="271.000000pt" height="270.000000pt" viewBox="0 0 271.000000 270.000000"
 preserveAspectRatio="xMidYMid meet">

<g transform="translate(0.000000,270.000000) scale(0.100000,-0.100000)"
fill="#000000" stroke="none">
<path d="M1230 2694 c-167 -16 -344 -69 -499 -150 -130 -67 -221 -134 -326
-239 -105 -105 -172 -196 -239 -325 -112 -217 -151 -377 -151 -620 0 -235 36
-392 136 -593 70 -140 139 -237 254 -353 191 -192 417 -313 695 -371 118 -25
383 -24 499 0 280 60 501 177 692 367 191 190 313 415 371 683 31 145 31 389
0 534 -115 535 -532 947 -1062 1047 -84 16 -291 27 -370 20z m180 -424 c0
-103 -1 -110 -20 -110 -19 0 -20 7 -20 110 0 103 1 110 20 110 19 0 20 -7 20
-110z m-270 -80 c0 -143 -1 -150 -20 -150 -19 0 -20 7 -20 150 0 143 1 150 20
150 19 0 20 -7 20 -150z m130 -80 c0 -109 -2 -130 -15 -130 -13 0 -15 21 -15
130 0 109 2 130 15 130 13 0 15 -21 15 -130z m258 -86 c12 -4 22 -9 22 -13 0
-3 -23 -18 -50 -33 -43 -24 -50 -32 -50 -58 0 -23 7 -35 31 -49 30 -19 31 -19
75 6 25 14 48 22 51 19 4 -3 -1 -22 -10 -42 -22 -45 -74 -69 -126 -57 -33 8
-45 4 -138 -50 -86 -50 -104 -65 -113 -93 -17 -52 -64 -86 -114 -82 -22 2 -41
8 -40 13 0 6 20 20 42 33 36 20 42 28 42 57 0 25 -7 37 -27 51 -27 17 -28 17
-76 -10 -27 -15 -52 -25 -55 -21 -3 3 2 21 11 40 22 46 68 69 126 62 42 -5 54
0 147 54 83 48 103 65 107 87 7 33 50 79 80 85 36 7 41 7 65 1z m-134 -600 c9
-8 16 -28 16 -44 0 -16 -7 -36 -16 -44 -8 -9 -28 -16 -44 -16 -16 0 -36 7 -44
16 -9 8 -16 28 -16 44 0 16 7 36 16 44 8 9 28 16 44 16 16 0 36 -7 44 -16z
m-589 -18 l29 -12 -42 -17 c-23 -9 -52 -17 -63 -17 -20 0 -20 1 -2 30 19 33
33 36 78 16z m135 -35 c0 -45 -3 -52 -46 -91 -36 -33 -48 -39 -55 -29 -15 24
-10 41 26 81 20 21 41 50 47 64 17 38 28 29 28 -25z m-282 -68 c12 -25 23 -33
43 -33 31 0 46 -15 51 -50 2 -19 9 -25 26 -24 27 1 27 3 1 -41 -16 -27 -24
-33 -30 -23 -23 37 -64 78 -79 78 -9 0 -22 11 -28 25 -16 34 -54 33 -82 -2
-17 -22 -23 -25 -30 -13 -15 24 -11 66 7 81 9 8 30 18 47 24 23 7 34 19 41 45
l10 35 3 -35 c1 -19 10 -50 20 -67z m-180 0 c26 -39 35 -66 20 -61 -14 5 -58
65 -58 79 0 18 19 8 38 -18z m1564 0 c10 -11 27 -83 44 -180 l28 -163 138 0
138 0 10 -26 c16 -41 24 -134 12 -134 -6 0 -14 9 -17 20 -4 11 -18 34 -32 50
-85 101 -233 72 -233 -45 0 -23 -4 -25 -45 -25 -34 0 -47 4 -52 18 -11 32 -54
82 -83 97 -16 8 -49 15 -73 15 -60 0 -107 -41 -107 -94 0 -35 -1 -36 -40 -36
-45 0 -39 -14 -70 160 -11 63 -20 131 -20 151 0 43 53 179 77 197 12 8 62 12
163 12 127 0 149 -2 162 -17z m-574 -103 c77 -101 87 -133 42 -138 -21 -2 -33
6 -60 45 l-35 48 -3 -40 c-2 -22 2 -80 8 -130 10 -75 20 -102 56 -167 55 -96
57 -121 12 -116 -30 3 -38 12 -85 93 -34 59 -52 102 -53 125 -1 47 -12 26 -39
-75 -33 -124 -39 -135 -72 -135 -43 0 -42 21 7 197 19 70 34 146 34 177 0 50
-1 53 -23 49 -13 -3 -52 9 -90 27 -55 27 -67 37 -67 57 0 35 25 39 82 12 l50
-24 41 48 c37 45 43 48 81 45 39 -3 45 -8 114 -98z m950 33 c-43 -2 -113 -2
-155 0 -43 1 -8 3 77 3 85 0 120 -2 78 -3z m-1927 -13 c27 -15 23 -32 -14 -56
-27 -17 -32 -26 -29 -53 2 -26 -1 -32 -15 -29 -14 3 -18 15 -20 60 -2 49 1 59
19 73 26 18 33 18 59 5z m507 -2 c17 -17 15 -23 -12 -36 -22 -10 -89 -2 -103
12 -3 2 17 11 43 20 61 18 58 18 72 4z m-353 -35 c5 -12 17 -24 27 -26 10 -3
18 -14 18 -25 0 -11 10 -26 22 -34 30 -20 18 -65 -20 -73 -15 -4 -35 -10 -44
-16 -28 -15 -67 -10 -79 9 -7 12 -20 17 -33 15 -31 -6 -76 39 -76 76 0 32 38
71 70 71 10 0 23 7 30 16 19 22 73 14 85 -13z m1745 -33 c0 -6 -50 -10 -130
-10 -80 0 -130 4 -130 10 0 6 50 10 130 10 80 0 130 -4 130 -10z m-1437 -34
c25 -19 22 -23 -23 -31 -30 -5 -45 -2 -64 12 -14 10 -26 21 -26 26 0 12 94 7
113 -7z m1537 -56 c0 -6 -42 -10 -105 -10 -63 0 -105 4 -105 10 0 6 42 10 105
10 63 0 105 -4 105 -10z m-2041 -26 c-21 -25 -69 -47 -69 -32 0 15 47 47 69
48 11 0 11 -3 0 -16z m347 -8 c29 -21 10 -30 -25 -11 -17 8 -31 18 -31 20 0
11 37 4 56 -9z m264 -5 c-28 -47 -38 -54 -74 -47 -20 4 -36 10 -36 14 0 4 -3
16 -6 28 -5 19 -1 20 60 20 56 0 63 -2 56 -15z m-600 -26 c-14 -17 -40 -20
-40 -6 0 6 10 17 22 26 26 17 37 3 18 -20z m288 -9 c3 -12 -1 -17 -10 -14 -7
3 -15 13 -16 22 -3 12 1 17 10 14 7 -3 15 -13 16 -22z m-108 -63 c0 -32 5 -41
31 -55 17 -10 37 -18 45 -18 10 0 14 -15 14 -60 0 -57 -1 -60 -24 -60 -13 0
-29 -7 -36 -15 -7 -9 -29 -15 -55 -15 -26 0 -48 6 -55 15 -7 8 -23 15 -36 15
-23 0 -24 3 -24 60 0 45 4 60 14 60 8 0 28 8 45 18 26 14 31 23 31 55 0 33 3
37 25 37 22 0 25 -4 25 -37z m1331 -52 c34 -34 39 -44 39 -85 0 -65 -31 -96
-96 -96 -41 0 -51 5 -85 39 -34 34 -39 44 -39 85 0 65 31 96 96 96 41 0 51 -5
85 -39z m370 0 c34 -34 39 -44 39 -85 0 -65 -31 -96 -96 -96 -41 0 -51 5 -85
39 -34 34 -39 44 -39 85 0 65 31 96 96 96 41 0 51 -5 85 -39z m-1863 -83 l-3
-93 -37 -3 -38 -3 0 95 0 96 40 0 41 0 -3 -92z m352 -4 l0 -95 -37 3 -38 3 -3
93 -3 92 41 0 40 0 0 -96z m-450 1 l0 -55 -50 0 -50 0 0 55 0 55 50 0 50 0 0
-55z m570 0 l0 -55 -50 0 -50 0 0 55 0 55 50 0 50 0 0 -55z"/>
<path d="M1731 1258 c-5 -13 -18 -47 -30 -76 -12 -29 -21 -55 -21 -57 0 -3 43
-5 95 -5 60 0 95 4 95 11 0 5 -5 41 -11 80 l-12 69 -54 0 c-46 0 -55 -3 -62
-22z"/>
<path d="M1852 848 c-33 -33 7 -108 59 -108 32 0 49 17 49 50 0 51 -75 91
-108 58z"/>
<path d="M2222 848 c-33 -33 7 -108 59 -108 32 0 49 17 49 50 0 53 -74 92
-108 58z"/>
</g>
</svg>
