<?xml version="1.0" standalone="no"?>
<!DOCTYPE svg PUBLIC "-//W3C//DTD SVG 20010904//EN"
 "http://www.w3.org/TR/2001/REC-SVG-20010904/DTD/svg10.dtd">
<svg version="1.0" xmlns="http://www.w3.org/2000/svg"
 width="271.000000pt" height="271.000000pt" viewBox="0 0 271.000000 271.000000"
 preserveAspectRatio="xMidYMid meet">

<g transform="translate(0.000000,271.000000) scale(0.100000,-0.100000)"
fill="#000000" stroke="none">
<path d="M1225 2690 c-243 -26 -466 -110 -656 -246 -155 -112 -329 -314 -412
-479 -198 -395 -191 -872 20 -1252 442 -796 1518 -933 2145 -274 476 500 490
1268 35 1802 -98 115 -264 242 -412 317 -202 101 -497 155 -720 132z m822
-386 c3 -8 -325 -306 -500 -455 l-30 -25 71 -96 c78 -103 92 -147 52 -168 -34
-18 -58 -2 -118 78 l-57 76 -5 -55 c-3 -30 -9 -47 -12 -39 -19 45 -28 88 -30
134 l-2 51 -3 -47 -4 -48 -56 0 -56 0 5 45 c3 25 2 45 -3 45 -5 0 -9 -20 -9
-44 0 -53 -20 -146 -32 -146 -4 0 -8 23 -8 52 l0 52 -55 -74 c-31 -41 -61 -78
-68 -82 -33 -21 -77 5 -77 45 0 22 211 318 230 325 6 2 10 -12 10 -32 0 -20 5
-36 10 -36 6 0 10 18 10 40 l0 40 49 0 c42 0 48 -3 45 -18 -3 -9 -1 -28 5 -42
9 -23 10 -23 10 13 1 20 5 37 10 37 5 0 22 -16 38 -36 l28 -36 260 231 c143
127 266 229 274 228 8 -1 16 -7 18 -13z m-622 -199 c19 -18 25 -35 25 -65 0
-30 -6 -47 -25 -65 -18 -19 -35 -25 -65 -25 -30 0 -47 6 -65 25 -19 18 -25 35
-25 65 0 30 6 47 25 65 18 19 35 25 65 25 30 0 47 -6 65 -25z m1 -465 c20 -65
18 -90 -5 -90 -11 0 -23 -5 -27 -11 -5 -9 3 -10 28 -5 l36 7 4 -43 c6 -57 3
-64 -47 -93 -50 -30 -65 -31 -114 -6 -55 28 -63 43 -56 93 7 43 7 44 43 41 36
-3 36 -3 10 8 -33 12 -34 24 -11 96 l17 54 54 -3 55 -3 13 -45z m-171 -230 c4
-6 25 -20 48 -31 23 -12 43 -23 45 -24 8 -7 -40 -313 -53 -342 l-15 -33 71 0
c64 0 70 2 63 18 -8 18 -53 302 -54 339 0 16 14 29 55 51 55 30 55 30 60 9 16
-72 46 -339 42 -374 l-5 -43 479 0 479 0 -26 -67 c-126 -336 -419 -606 -764
-706 -173 -50 -401 -60 -565 -24 l-60 13 -3 392 -2 392 80 0 80 0 -15 24 c-15
22 -14 40 12 220 15 108 31 196 35 196 4 0 10 -5 13 -10z"/>
<path d="M1290 1830 c0 -5 5 -10 10 -10 6 0 10 5 10 10 0 6 -4 10 -10 10 -5 0
-10 -4 -10 -10z"/>
<path d="M1340 1530 c0 -5 7 -10 15 -10 8 0 15 5 15 10 0 6 -7 10 -15 10 -8 0
-15 -4 -15 -10z"/>
</g>
</svg>
